<svg width="21" height="21" viewBox="0 0 21 21" fill="none" xmlns="http://www.w3.org/2000/svg">
<path d="M5.5 2.5C5.5 1.39543 6.39543 0.5 7.5 0.5H13.5C14.6046 0.5 15.5 1.39543 15.5 2.5V4.5H17.4897C17.4959 4.49994 17.5021 4.49994 17.5083 4.5H19.5C20.0523 4.5 20.5 4.94772 20.5 5.5C20.5 6.05228 20.0523 6.5 19.5 6.5H18.4311L17.5638 18.6425C17.489 19.6891 16.6182 20.5 15.5689 20.5H5.43112C4.38184 20.5 3.51096 19.6891 3.4362 18.6425L2.56888 6.5H1.5C0.947715 6.5 0.5 6.05228 0.5 5.5C0.5 4.94772 0.947715 4.5 1.5 4.5H3.49174C3.49795 4.49994 3.50414 4.49994 3.51032 4.5H5.5V2.5ZM7.5 4.5H13.5V2.5H7.5V4.5ZM4.57398 6.5L5.43112 18.5H15.5689L16.426 6.5H4.57398ZM8.5 8.5C9.05228 8.5 9.5 8.94772 9.5 9.5V15.5C9.5 16.0523 9.05228 16.5 8.5 16.5C7.94772 16.5 7.5 16.0523 7.5 15.5V9.5C7.5 8.94772 7.94772 8.5 8.5 8.5ZM12.5 8.5C13.0523 8.5 13.5 8.94772 13.5 9.5V15.5C13.5 16.0523 13.0523 16.5 12.5 16.5C11.9477 16.5 11.5 16.0523 11.5 15.5V9.5C11.5 8.94772 11.9477 8.5 12.5 8.5Z" fill="#871DF0"/>
</svg>
