<svg width="16" height="22" viewBox="0 0 16 22" fill="none" xmlns="http://www.w3.org/2000/svg">
<path d="M15.2708 11.5418C14.7597 10.8808 13.9884 10.4269 12.957 10.1802C14.2705 9.51021 14.8476 8.37315 14.6892 6.76879C14.6362 6.18701 14.4754 5.6828 14.2065 5.25542C13.9373 4.82795 13.5741 4.48429 13.1155 4.22431C12.6572 3.96401 12.1588 3.76586 11.6214 3.62925C11.0838 3.49264 10.4667 3.39345 9.77032 3.33181V0H7.73441V3.23924C7.38187 3.23924 6.84422 3.24804 6.12153 3.26568V0H4.08534V3.33181C3.79439 3.34065 3.36696 3.34515 2.80287 3.34515L0 3.33181V5.50016H1.46747C2.13737 5.50016 2.52961 5.79992 2.64417 6.3992V10.1938C2.73244 10.1938 2.80287 10.1984 2.8558 10.2072H2.64417V15.5219C2.57374 15.9714 2.31816 16.1963 1.8774 16.1963H0.410016L9.25663e-05 18.6159H2.6444C2.8119 18.6159 3.05414 18.6181 3.37159 18.6221C3.68885 18.6265 3.92674 18.6287 4.08544 18.6287V22.0001H6.12195V18.6684C6.49205 18.6774 7.02969 18.6817 7.73483 18.6817V22.0001H9.77078V18.6287C10.4937 18.5935 11.1349 18.5278 11.6944 18.4305C12.2541 18.3332 12.7897 18.1814 13.3008 17.9741C13.8119 17.7671 14.2393 17.5091 14.583 17.2006C14.9269 16.8924 15.2109 16.5 15.436 16.0239C15.6604 15.5479 15.8039 14.997 15.8654 14.371C15.9804 13.1462 15.782 12.203 15.2708 11.5418ZM6.16112 5.6452C6.22285 5.6452 6.39693 5.64298 6.68339 5.63853C6.97 5.63399 7.20788 5.62964 7.39738 5.6252C7.58692 5.62084 7.84254 5.63186 8.16439 5.65831C8.48609 5.68475 8.75709 5.72008 8.97738 5.76407C9.19767 5.80807 9.44028 5.88082 9.70447 5.98219C9.96912 6.08347 10.1805 6.20692 10.339 6.35233C10.4978 6.49774 10.6322 6.68293 10.7422 6.90771C10.8525 7.13245 10.9076 7.39025 10.9076 7.68107C10.9076 7.92789 10.868 8.15272 10.7887 8.35555C10.7096 8.55824 10.5904 8.72796 10.4319 8.86457C10.2734 9.00123 10.11 9.12034 9.9425 9.22161C9.77518 9.32289 9.56124 9.40448 9.30131 9.46612C9.04142 9.52785 8.81447 9.57634 8.62067 9.61153C8.42673 9.64682 8.18439 9.67113 7.89348 9.68428C7.60253 9.69743 7.3821 9.70642 7.23233 9.71077C7.08243 9.71512 6.87756 9.71512 6.61745 9.71077C6.35729 9.70642 6.20544 9.7041 6.16126 9.7041V5.64515H6.16112V5.6452ZM11.7209 14.6488C11.637 14.8517 11.5292 15.0281 11.397 15.178C11.2647 15.3276 11.0905 15.4599 10.8747 15.5744C10.6589 15.6891 10.4493 15.7815 10.2468 15.852C10.044 15.9228 9.79926 15.9842 9.51308 16.0373C9.22624 16.0902 8.9752 16.1274 8.75903 16.1496C8.54319 16.1717 8.28548 16.1892 7.98568 16.2026C7.68611 16.2155 7.45239 16.2223 7.28499 16.2223C7.11749 16.2223 6.90591 16.2199 6.65028 16.2155C6.39452 16.2114 6.23161 16.2092 6.16103 16.2092V11.7402C6.23147 11.7402 6.44083 11.7359 6.78907 11.7269C7.13736 11.718 7.42146 11.7139 7.64184 11.7139C7.86218 11.7139 8.16638 11.7269 8.55435 11.7535C8.94195 11.7798 9.26811 11.8193 9.53276 11.8722C9.79709 11.9252 10.0855 12.0066 10.3987 12.1169C10.7115 12.227 10.965 12.3614 11.159 12.52C11.353 12.679 11.5159 12.8814 11.6481 13.1283C11.7806 13.375 11.8467 13.6571 11.8467 13.9745C11.8466 14.2215 11.8048 14.446 11.7209 14.6488Z" fill="#F6543E"/>
</svg>
