<svg width="14" height="22" viewBox="0 0 14 22" fill="none" xmlns="http://www.w3.org/2000/svg">
<path fill-rule="evenodd" clip-rule="evenodd" d="M6.78532 0.291756C6.73666 0.408216 5.26624 2.87728 3.51772 5.77858C1.7692 8.67982 0.32404 11.0916 0.30616 11.1382C0.28294 11.1987 1.23286 11.7897 3.637 13.2102L7.00042 15.1976L10.3629 13.2092C12.7785 11.7806 13.7162 11.1967 13.6927 11.1355C13.5712 10.8188 7.03264 0.0799561 6.9613 0.0799561C6.91318 0.0799561 6.83398 0.175236 6.78532 0.291756ZM0.31414 12.5675C0.44374 12.789 6.97264 21.9752 6.99994 21.9743C7.04506 21.9729 13.7202 12.5402 13.6944 12.5144C13.67 12.4901 7.43068 16.1648 7.1704 16.3568L7.01086 16.4745L3.7804 14.5672C2.00362 13.5182 0.4843 12.6176 0.40414 12.566C0.27124 12.4803 0.26326 12.4805 0.31414 12.5675Z" fill="#6374C4"/>
</svg>
