<svg width="22" height="22" viewBox="0 0 22 22" fill="none" xmlns="http://www.w3.org/2000/svg">
<path d="M19.0359 13.5346C18.2996 13.1308 17.4985 12.9438 16.7095 12.95L16.7162 12.9462C15.6337 12.9586 14.7458 12.1167 14.7331 11.0661C14.7206 10.0294 15.564 9.17757 16.6253 9.14216V9.14168L16.6234 9.14071C17.4262 9.13683 18.2385 8.93262 18.9785 8.50557C21.1913 7.22842 21.9188 4.45175 20.6034 2.30362C19.2876 0.155396 16.4273 -0.550752 14.2145 0.726406C12.0016 2.00347 11.2742 4.78023 12.5898 6.92836C13.1377 7.82348 12.8349 8.98035 11.9129 9.51255C11.004 10.0371 9.83361 9.75838 9.27531 8.89333L9.27482 8.89352V8.89595C8.87252 8.22162 8.28637 7.63907 7.53705 7.22812C5.29579 5.99879 2.452 6.76596 1.1857 8.94203C-0.0805895 11.1176 0.710055 13.8782 2.95141 15.1074C5.19286 16.3367 8.03628 15.5695 9.30267 13.3935C9.31033 13.3804 9.31712 13.3668 9.32459 13.3536V13.3568L9.32508 13.357C9.863 12.4787 11.0281 12.1744 11.9489 12.6794C12.883 13.1917 13.2121 14.3418 12.6846 15.2483C11.4181 17.4243 12.2088 20.1847 14.4501 21.4138C16.6915 22.6433 19.5352 21.8759 20.8015 19.6999C22.0676 17.5242 21.2772 14.7639 19.0359 13.5346Z" fill="#638FFE"/>
</svg>
