<svg width="225" height="218" viewBox="0 0 225 218" fill="none" xmlns="http://www.w3.org/2000/svg">
<g clip-path="url(#clip0)">
<ellipse cx="109.5" cy="102" rx="85.5" ry="85" fill="#E0519E"/>
<path d="M208.984 43.1857C221.076 63.7417 226.538 87.5251 224.627 111.297C222.715 135.069 213.523 157.674 198.303 176.034C183.082 194.394 162.572 207.616 139.566 213.9C116.56 220.185 92.1765 219.225 69.7356 211.153L109 102L208.984 43.1857Z" fill="#CAE988"/>
<path d="M37.7287 29.7287C48.6863 18.771 62.0074 10.4679 76.6709 5.45575C91.3343 0.443596 106.951 -1.14448 122.323 0.813253C137.695 2.77099 152.415 8.22256 165.354 16.75C178.293 25.2775 189.108 36.6545 196.969 50.0088L109.5 101.5L37.7287 29.7287Z" fill="#686DF1"/>
<g filter="url(#filter0_dd)">
<path d="M79 16C79 13.7909 80.7909 12 83 12H151C153.209 12 155 13.7909 155 16V40C155 42.2091 153.209 44 151 44H125L117 52L109 44H83C80.7909 44 79 42.2091 79 40V16Z" fill="white"/>
</g>
<path d="M92.4511 23.6V29.408C92.4511 30.248 92.2191 30.9 91.7551 31.364C91.2911 31.828 90.6511 32.06 89.8351 32.06C88.8431 32.06 88.0191 31.656 87.3631 30.848L88.0351 29.768C88.6031 30.384 89.1991 30.692 89.8231 30.692C90.2071 30.692 90.5031 30.58 90.7111 30.356C90.9191 30.124 91.0231 29.792 91.0231 29.36V24.872H88.1191V23.6H92.4511ZM97.5314 25.568C98.5154 25.568 99.3154 25.868 99.9314 26.468C100.547 27.06 100.855 27.84 100.855 28.808C100.855 29.768 100.547 30.548 99.9314 31.148C99.3154 31.748 98.5154 32.048 97.5314 32.048C96.5394 32.048 95.7354 31.748 95.1194 31.148C94.5034 30.548 94.1954 29.768 94.1954 28.808C94.1954 27.84 94.5034 27.06 95.1194 26.468C95.7354 25.868 96.5394 25.568 97.5314 25.568ZM97.5314 26.756C96.9554 26.756 96.4834 26.948 96.1154 27.332C95.7554 27.716 95.5754 28.212 95.5754 28.82C95.5754 29.436 95.7554 29.936 96.1154 30.32C96.4834 30.704 96.9554 30.896 97.5314 30.896C98.1074 30.896 98.5754 30.704 98.9354 30.32C99.2954 29.936 99.4754 29.436 99.4754 28.82C99.4754 28.212 99.2914 27.716 98.9234 27.332C98.5634 26.948 98.0994 26.756 97.5314 26.756ZM106.499 25.568C107.243 25.568 107.823 25.788 108.239 26.228C108.663 26.66 108.875 27.26 108.875 28.028V32H107.495V28.412C107.495 27.932 107.359 27.556 107.087 27.284C106.815 27.004 106.439 26.864 105.959 26.864C105.399 26.872 104.955 27.064 104.627 27.44C104.299 27.808 104.135 28.28 104.135 28.856V32H102.755V23.096H104.135V26.864C104.575 26 105.363 25.568 106.499 25.568ZM114.855 25.568C115.599 25.568 116.179 25.788 116.595 26.228C117.019 26.66 117.231 27.26 117.231 28.028V32H115.851V28.412C115.851 27.932 115.715 27.556 115.443 27.284C115.171 27.004 114.795 26.864 114.315 26.864C113.803 26.872 113.383 27.036 113.055 27.356C112.735 27.676 112.551 28.092 112.503 28.604V32H111.123V25.616H112.503V26.84C112.935 25.992 113.719 25.568 114.855 25.568ZM123.058 23.6H126.502C127.758 23.6 128.794 23.996 129.61 24.788C130.434 25.58 130.846 26.584 130.846 27.8C130.846 29.016 130.434 30.02 129.61 30.812C128.786 31.604 127.738 32 126.466 32H123.058V23.6ZM124.474 24.872V30.728H126.538C127.362 30.728 128.046 30.456 128.59 29.912C129.142 29.36 129.418 28.66 129.418 27.812C129.418 26.964 129.134 26.264 128.566 25.712C128.006 25.152 127.31 24.872 126.478 24.872H124.474ZM135.414 25.568C136.398 25.568 137.198 25.868 137.814 26.468C138.43 27.06 138.738 27.84 138.738 28.808C138.738 29.768 138.43 30.548 137.814 31.148C137.198 31.748 136.398 32.048 135.414 32.048C134.422 32.048 133.618 31.748 133.002 31.148C132.386 30.548 132.078 29.768 132.078 28.808C132.078 27.84 132.386 27.06 133.002 26.468C133.618 25.868 134.422 25.568 135.414 25.568ZM135.414 26.756C134.838 26.756 134.366 26.948 133.998 27.332C133.638 27.716 133.458 28.212 133.458 28.82C133.458 29.436 133.638 29.936 133.998 30.32C134.366 30.704 134.838 30.896 135.414 30.896C135.99 30.896 136.458 30.704 136.818 30.32C137.178 29.936 137.358 29.436 137.358 28.82C137.358 28.212 137.174 27.716 136.806 27.332C136.446 26.948 135.982 26.756 135.414 26.756ZM143.206 25.568C144.302 25.568 145.094 25.9 145.582 26.564C146.078 27.22 146.282 28.144 146.194 29.336H141.37C141.482 29.832 141.714 30.224 142.066 30.512C142.418 30.792 142.846 30.932 143.35 30.932C144.07 30.932 144.67 30.684 145.15 30.188L145.882 30.968C145.226 31.688 144.346 32.048 143.242 32.048C142.258 32.048 141.466 31.752 140.866 31.16C140.274 30.56 139.978 29.78 139.978 28.82C139.978 27.86 140.278 27.08 140.878 26.48C141.478 25.88 142.254 25.576 143.206 25.568ZM141.346 28.328H144.994C144.97 27.816 144.798 27.412 144.478 27.116C144.158 26.82 143.738 26.672 143.218 26.672C142.714 26.672 142.294 26.82 141.958 27.116C141.63 27.412 141.426 27.816 141.346 28.328Z" fill="#333333"/>
</g>
<defs>
<filter id="filter0_dd" x="55" y="-8" width="124" height="88" filterUnits="userSpaceOnUse" color-interpolation-filters="sRGB">
<feFlood flood-opacity="0" result="BackgroundImageFix"/>
<feColorMatrix in="SourceAlpha" type="matrix" values="0 0 0 0 0 0 0 0 0 0 0 0 0 0 0 0 0 0 127 0" result="hardAlpha"/>
<feOffset dy="4"/>
<feGaussianBlur stdDeviation="12"/>
<feColorMatrix type="matrix" values="0 0 0 0 0 0 0 0 0 0 0 0 0 0 0 0 0 0 0.08 0"/>
<feBlend mode="normal" in2="BackgroundImageFix" result="effect1_dropShadow"/>
<feColorMatrix in="SourceAlpha" type="matrix" values="0 0 0 0 0 0 0 0 0 0 0 0 0 0 0 0 0 0 127 0" result="hardAlpha"/>
<feOffset dy="2"/>
<feGaussianBlur stdDeviation="2"/>
<feColorMatrix type="matrix" values="0 0 0 0 0 0 0 0 0 0 0 0 0 0 0 0 0 0 0.08 0"/>
<feBlend mode="normal" in2="effect1_dropShadow" result="effect2_dropShadow"/>
<feBlend mode="normal" in="SourceGraphic" in2="effect2_dropShadow" result="shape"/>
</filter>
<clipPath id="clip0">
<rect width="225" height="218" fill="white"/>
</clipPath>
</defs>
</svg>
