<svg width="18" height="19" viewBox="0 0 18 19" fill="none" xmlns="http://www.w3.org/2000/svg">
<path d="M12.5 7.5C13.3284 7.5 14 6.82843 14 6C14 5.17157 13.3284 4.5 12.5 4.5C11.6716 4.5 11 5.17157 11 6C11 6.82843 11.6716 7.5 12.5 7.5Z" fill="#871DF0"/>
<path d="M0 2.5C0 1.39543 0.895431 0.5 2 0.5H16C17.1046 0.5 18 1.39543 18 2.5V16.5C18 17.6046 17.1046 18.5 16 18.5H2C0.895431 18.5 0 17.6046 0 16.5V2.5ZM16 2.5H2V10.4194L5.37534 7.71913C5.74056 7.42696 6.25951 7.42696 6.62473 7.71913L10.9258 11.16L12.2929 9.79289C12.6835 9.40237 13.3166 9.40237 13.7071 9.79289L16 12.0857V2.5ZM2 16.5H16V14.9142L13 11.9142L11.7071 13.2071C11.3468 13.5674 10.7732 13.5992 10.3753 13.2809L6.00004 9.78062L2 12.9807V16.5Z" fill="#871DF0"/>
</svg>
