<svg width="60" height="62" viewBox="0 0 60 62" fill="none" xmlns="http://www.w3.org/2000/svg">
<path d="M31.4527 14.5035C35.4579 14.5035 38.7048 11.2568 38.7048 7.25177C38.7048 3.24673 35.4579 0 31.4527 0C27.4475 0 24.2007 3.24673 24.2007 7.25177C24.2007 11.2568 27.4475 14.5035 31.4527 14.5035Z" fill="#871DF0"/>
<path d="M31.4528 62C33.8557 62 35.8036 60.0522 35.8036 57.6494C35.8036 55.2467 33.8557 53.2988 31.4528 53.2988C29.0499 53.2988 27.1021 55.2467 27.1021 57.6494C27.1021 60.0522 29.0499 62 31.4528 62Z" fill="#871DF0"/>
<path d="M13.633 21.1576C17.238 21.1576 20.1603 18.2354 20.1603 14.6306C20.1603 11.0258 17.238 8.10352 13.633 8.10352C10.0281 8.10352 7.10571 11.0258 7.10571 14.6306C7.10571 18.2354 10.0281 21.1576 13.633 21.1576Z" fill="#871DF0"/>
<path d="M49.2723 53.8918C51.2749 53.8918 52.8983 52.2684 52.8983 50.2659C52.8983 48.2634 51.2749 46.64 49.2723 46.64C47.2697 46.64 45.6462 48.2634 45.6462 50.2659C45.6462 52.2684 47.2697 53.8918 49.2723 53.8918Z" fill="#871DF0"/>
<path d="M6.25188 38.2517C9.45525 38.2517 12.0521 35.655 12.0521 32.4517C12.0521 29.2485 9.45525 26.6517 6.25188 26.6517C3.04851 26.6517 0.45166 29.2485 0.45166 32.4517C0.45166 35.655 3.04851 38.2517 6.25188 38.2517Z" fill="#871DF0"/>
<path d="M56.6516 35.3482C58.2527 35.3482 59.5506 34.0503 59.5506 32.4494C59.5506 30.8484 58.2527 29.5505 56.6516 29.5505C55.0506 29.5505 53.7527 30.8484 53.7527 32.4494C53.7527 34.0503 55.0506 35.3482 56.6516 35.3482Z" fill="#871DF0"/>
<path d="M10.0451 46.6824C8.06147 48.6659 8.06147 51.8753 10.0451 53.8589C12.0263 55.8424 15.2406 55.8424 17.2218 53.8589C19.2054 51.8753 19.2054 48.6659 17.2218 46.6824C15.2406 44.6965 12.0287 44.6777 10.0451 46.6824Z" fill="#871DF0"/>
<path d="M49.2699 16.8047C50.4707 16.8047 51.4441 15.8313 51.4441 14.6305C51.4441 13.4298 50.4707 12.4564 49.2699 12.4564C48.0691 12.4564 47.0957 13.4298 47.0957 14.6305C47.0957 15.8313 48.0691 16.8047 49.2699 16.8047Z" fill="#871DF0"/>
</svg>
