<svg width="17" height="21" viewBox="0 0 17 21" fill="none" xmlns="http://www.w3.org/2000/svg">
<path d="M7.79289 0.792893C8.18342 0.402369 8.81658 0.402369 9.20711 0.792893L12.2071 3.79289C12.5976 4.18342 12.5976 4.81658 12.2071 5.20711C11.8166 5.59763 11.1834 5.59763 10.7929 5.20711L9.5 3.91421V13.5C9.5 14.0523 9.05228 14.5 8.5 14.5C7.94772 14.5 7.5 14.0523 7.5 13.5V3.91421L6.20711 5.20711C5.81658 5.59763 5.18342 5.59763 4.79289 5.20711C4.40237 4.81658 4.40237 4.18342 4.79289 3.79289L7.79289 0.792893ZM0.5 9.5C0.5 8.39543 1.39543 7.5 2.5 7.5H4.5C5.05228 7.5 5.5 7.94772 5.5 8.5C5.5 9.05228 5.05228 9.5 4.5 9.5H2.5V18.5H14.5V9.5H12.5C11.9477 9.5 11.5 9.05228 11.5 8.5C11.5 7.94772 11.9477 7.5 12.5 7.5H14.5C15.6046 7.5 16.5 8.39543 16.5 9.5V18.5C16.5 19.6046 15.6046 20.5 14.5 20.5H2.5C1.39543 20.5 0.5 19.6046 0.5 18.5V9.5Z" fill="#871DF0"/>
</svg>
